<svg xmlns="http://www.w3.org/2000/svg" xmlns:xlink="http://www.w3.org/1999/xlink" width="476" zoomAndPan="magnify" viewBox="0 0 357 98.249997" height="131" preserveAspectRatio="xMidYMid meet" version="1.0"><defs><g/><clipPath id="3b925a6954"><path d="M 33.726562 47 L 72 47 L 72 61.164062 L 33.726562 61.164062 Z M 33.726562 47 " clip-rule="nonzero"/></clipPath><clipPath id="5e1faf468f"><path d="M 50 22.460938 L 64 22.460938 L 64 36 L 50 36 Z M 50 22.460938 " clip-rule="nonzero"/></clipPath><clipPath id="f6f071bf1e"><path d="M 56 38 L 77.640625 38 L 77.640625 55 L 56 55 Z M 56 38 " clip-rule="nonzero"/></clipPath><clipPath id="6016f1d124"><path d="M 124.164062 22.460938 L 155.535156 22.460938 L 155.535156 61.164062 L 124.164062 61.164062 Z M 124.164062 22.460938 " clip-rule="nonzero"/></clipPath><clipPath id="6a108df9f5"><path d="M 123.152344 46.460938 L 138.128906 46.460938 L 138.128906 61.164062 L 123.152344 61.164062 Z M 123.152344 46.460938 " clip-rule="nonzero"/></clipPath><clipPath id="6926c8fcbc"><path d="M 201 22.460938 L 240.285156 22.460938 L 240.285156 61.164062 L 201 61.164062 Z M 201 22.460938 " clip-rule="nonzero"/></clipPath><clipPath id="429db70a41"><path d="M 291 22.460938 L 298 22.460938 L 298 32 L 291 32 Z M 291 22.460938 " clip-rule="nonzero"/></clipPath><clipPath id="323daf4f7b"><path d="M 280.152344 30 L 290 30 L 290 45 L 280.152344 45 Z M 280.152344 30 " clip-rule="nonzero"/></clipPath><clipPath id="f261ab90d1"><path d="M 296.253906 32.746094 L 320.777344 32.746094 L 320.777344 61.164062 L 296.253906 61.164062 Z M 296.253906 32.746094 " clip-rule="nonzero"/></clipPath></defs><g clip-path="url(#3b925a6954)"><path fill="#4fa051" d="M 71.484375 53.488281 L 62.636719 50.621094 C 62.375 50.535156 62.089844 50.679688 62.003906 50.945312 C 61.917969 51.210938 62.0625 51.496094 62.328125 51.582031 L 69.804688 54.003906 L 52.78125 60.410156 L 35.757812 54.003906 L 52.78125 48.488281 L 53.980469 48.875 C 54.246094 48.960938 54.53125 48.816406 54.617188 48.550781 C 54.703125 48.289062 54.558594 48.003906 54.292969 47.917969 L 52.9375 47.476562 C 52.835938 47.445312 52.726562 47.445312 52.625 47.476562 L 34.078125 53.488281 C 33.875 53.554688 33.734375 53.742188 33.730469 53.957031 C 33.726562 54.171875 33.855469 54.363281 34.054688 54.4375 L 52.601562 61.417969 C 52.660156 61.441406 52.722656 61.449219 52.78125 61.449219 C 52.839844 61.449219 52.902344 61.441406 52.957031 61.417969 L 71.503906 54.4375 C 71.707031 54.363281 71.835938 54.171875 71.832031 53.957031 C 71.828125 53.742188 71.6875 53.554688 71.484375 53.488281 Z M 71.484375 53.488281 " fill-opacity="1" fill-rule="nonzero"/></g><path fill="#4fa051" d="M 43.140625 43.574219 C 44.707031 44.6875 46.300781 45.433594 46.75 45.636719 C 46.8125 45.664062 46.878906 45.679688 46.949219 45.679688 C 47.019531 45.679688 47.085938 45.664062 47.148438 45.636719 C 47.601562 45.433594 49.191406 44.6875 50.757812 43.574219 C 51.792969 42.839844 52.636719 42.078125 53.257812 41.304688 C 54.109375 40.25 54.542969 39.1875 54.542969 38.144531 L 54.542969 30.378906 C 54.542969 30.136719 54.371094 29.933594 54.132812 29.894531 C 53.777344 29.835938 53.28125 29.683594 52.625 29.421875 C 51.945312 29.15625 51.113281 28.785156 50.148438 28.316406 C 48.835938 27.679688 47.636719 27.039062 47.179688 26.792969 C 47.117188 26.761719 47.046875 26.742188 46.972656 26.738281 L 46.96875 26.734375 L 46.929688 26.734375 L 46.925781 26.738281 C 46.851562 26.742188 46.78125 26.761719 46.71875 26.792969 C 46.261719 27.039062 45.0625 27.679688 43.75 28.316406 C 42.785156 28.785156 41.953125 29.15625 41.273438 29.421875 C 40.617188 29.683594 40.125 29.835938 39.765625 29.894531 C 39.527344 29.933594 39.355469 30.136719 39.355469 30.378906 L 39.355469 38.144531 C 39.355469 39.1875 39.789062 40.25 40.640625 41.304688 C 41.261719 42.074219 42.105469 42.839844 43.140625 43.574219 Z M 40.332031 30.773438 C 40.691406 30.679688 41.117188 30.535156 41.632812 30.332031 C 42.332031 30.058594 43.1875 29.675781 44.175781 29.195312 C 45.316406 28.644531 46.367188 28.089844 46.949219 27.78125 C 47.53125 28.089844 48.582031 28.644531 49.722656 29.195312 C 50.710938 29.675781 51.566406 30.058594 52.265625 30.332031 C 52.78125 30.535156 53.207031 30.679688 53.566406 30.773438 L 53.566406 38.144531 C 53.566406 39.996094 51.730469 41.683594 50.191406 42.777344 C 48.875 43.710938 47.542969 44.375 46.949219 44.652344 C 46.355469 44.375 45.023438 43.710938 43.707031 42.777344 C 42.167969 41.683594 40.332031 39.996094 40.332031 38.144531 Z M 40.332031 30.773438 " fill-opacity="1" fill-rule="nonzero"/><path fill="#4fa051" d="M 43.996094 41.964844 C 45.191406 42.828125 46.402344 43.40625 46.742188 43.5625 C 46.808594 43.589844 46.878906 43.605469 46.949219 43.605469 C 47.023438 43.605469 47.089844 43.589844 47.15625 43.5625 C 47.496094 43.40625 48.707031 42.828125 49.902344 41.964844 C 50.695312 41.394531 51.339844 40.800781 51.816406 40.199219 C 52.476562 39.363281 52.816406 38.523438 52.816406 37.695312 L 52.816406 31.730469 C 52.816406 31.484375 52.636719 31.277344 52.394531 31.234375 C 52.136719 31.191406 51.773438 31.078125 51.285156 30.882812 C 50.777344 30.679688 50.148438 30.394531 49.425781 30.035156 C 48.4375 29.550781 47.53125 29.058594 47.1875 28.871094 C 47.125 28.835938 47.054688 28.816406 46.984375 28.808594 L 46.914062 28.808594 C 46.84375 28.816406 46.773438 28.835938 46.710938 28.871094 C 46.367188 29.058594 45.460938 29.550781 44.472656 30.035156 C 43.75 30.394531 43.121094 30.679688 42.613281 30.882812 C 42.125 31.078125 41.761719 31.191406 41.503906 31.234375 C 41.261719 31.277344 41.085938 31.484375 41.085938 31.730469 L 41.085938 37.695312 C 41.085938 38.523438 41.421875 39.363281 42.082031 40.199219 C 42.558594 40.800781 43.203125 41.394531 43.996094 41.964844 Z M 42.082031 32.132812 C 42.335938 32.058594 42.632812 31.957031 42.984375 31.816406 C 43.515625 31.601562 44.164062 31.308594 44.914062 30.9375 C 45.742188 30.53125 46.511719 30.121094 46.949219 29.882812 C 47.386719 30.121094 48.15625 30.53125 48.988281 30.9375 C 49.734375 31.308594 50.382812 31.601562 50.914062 31.816406 C 51.265625 31.957031 51.5625 32.058594 51.816406 32.132812 L 51.816406 37.695312 C 51.816406 39.0625 50.460938 40.328125 49.320312 41.148438 C 48.371094 41.835938 47.402344 42.332031 46.949219 42.550781 C 46.5 42.332031 45.527344 41.835938 44.578125 41.148438 C 43.4375 40.328125 42.082031 39.0625 42.082031 37.695312 Z M 42.082031 32.132812 " fill-opacity="1" fill-rule="nonzero"/><g clip-path="url(#5e1faf468f)"><path fill="#4fa051" d="M 51.097656 27.421875 C 51.359375 27.511719 51.648438 27.375 51.738281 27.113281 C 52.5 24.933594 54.5625 23.46875 56.871094 23.46875 C 59.867188 23.46875 62.304688 25.90625 62.304688 28.902344 C 62.304688 31.898438 59.867188 34.335938 56.871094 34.335938 C 56.628906 34.335938 56.386719 34.320312 56.148438 34.289062 C 55.875 34.253906 55.621094 34.449219 55.585938 34.722656 C 55.546875 35 55.742188 35.253906 56.019531 35.289062 C 56.296875 35.328125 56.585938 35.34375 56.871094 35.34375 C 57.738281 35.34375 58.582031 35.175781 59.378906 34.839844 C 60.144531 34.515625 60.832031 34.050781 61.425781 33.457031 C 62.015625 32.867188 62.480469 32.179688 62.804688 31.410156 C 63.140625 30.617188 63.3125 29.773438 63.3125 28.902344 C 63.3125 28.035156 63.140625 27.191406 62.804688 26.394531 C 62.480469 25.628906 62.015625 24.941406 61.425781 24.347656 C 60.832031 23.757812 60.144531 23.292969 59.378906 22.96875 C 58.582031 22.632812 57.738281 22.460938 56.871094 22.460938 C 55.507812 22.460938 54.203125 22.882812 53.101562 23.679688 C 52.574219 24.0625 52.105469 24.519531 51.710938 25.042969 C 51.316406 25.574219 51.003906 26.15625 50.789062 26.78125 C 50.695312 27.042969 50.835938 27.328125 51.097656 27.421875 Z M 51.097656 27.421875 " fill-opacity="1" fill-rule="nonzero"/></g><path fill="#4fa051" d="M 56.871094 24.390625 C 56.589844 24.390625 56.367188 24.617188 56.367188 24.894531 L 56.367188 27.59375 C 55.839844 27.796875 55.464844 28.304688 55.464844 28.902344 C 55.464844 29.679688 56.09375 30.308594 56.871094 30.308594 C 57.46875 30.308594 57.980469 29.933594 58.183594 29.40625 L 59.683594 29.40625 C 59.960938 29.40625 60.1875 29.183594 60.1875 28.902344 C 60.1875 28.625 59.960938 28.398438 59.683594 28.398438 L 58.183594 28.398438 C 58.039062 28.03125 57.742188 27.734375 57.375 27.59375 L 57.375 24.894531 C 57.375 24.617188 57.148438 24.390625 56.871094 24.390625 Z M 56.871094 29.300781 C 56.652344 29.300781 56.472656 29.121094 56.472656 28.902344 C 56.472656 28.683594 56.652344 28.503906 56.871094 28.503906 C 57.089844 28.503906 57.269531 28.683594 57.269531 28.902344 C 57.269531 29.125 57.089844 29.300781 56.871094 29.300781 Z M 56.871094 29.300781 " fill-opacity="1" fill-rule="nonzero"/><g clip-path="url(#f6f071bf1e)"><path fill="#4fa051" d="M 77.664062 44.921875 C 77.542969 44.800781 77.382812 44.734375 77.210938 44.734375 L 66.839844 44.667969 C 66.835938 44.667969 66.835938 44.667969 66.835938 44.667969 C 66.496094 44.667969 66.214844 44.9375 66.195312 45.269531 L 62.199219 45.246094 C 62.199219 45.03125 62.0625 44.839844 61.859375 44.773438 C 60.785156 44.40625 60.207031 43.90625 60.136719 43.285156 C 60.023438 42.285156 61.199219 40.988281 62.421875 40.230469 C 62.632812 40.097656 62.714844 39.832031 62.617188 39.601562 L 62.460938 39.238281 C 62.40625 39.113281 62.304688 39.015625 62.179688 38.96875 C 62.054688 38.917969 61.914062 38.921875 61.789062 38.976562 C 60.542969 39.542969 59.496094 40.125 58.675781 40.703125 C 57.960938 41.207031 57.394531 41.722656 56.996094 42.238281 C 56.222656 43.246094 56.21875 44.058594 56.214844 44.492188 L 56.191406 49.332031 C 56.191406 49.332031 56.191406 49.332031 56.191406 49.335938 C 56.191406 49.417969 56.210938 49.5 56.253906 49.578125 C 56.386719 49.816406 56.457031 50.089844 56.457031 50.367188 C 56.453125 50.683594 56.363281 50.988281 56.191406 51.246094 C 56.191406 51.246094 56.191406 51.25 56.191406 51.25 C 56.136719 51.328125 56.109375 51.425781 56.109375 51.519531 L 56.09375 53.640625 C 56.09375 53.773438 56.148438 53.902344 56.242188 53.996094 C 56.335938 54.089844 56.460938 54.144531 56.597656 54.144531 L 60.164062 54.167969 C 60.164062 54.167969 60.164062 54.167969 60.167969 54.167969 C 60.441406 54.167969 60.667969 53.945312 60.667969 53.667969 L 60.683594 51.546875 C 60.683594 51.449219 60.652344 51.351562 60.601562 51.273438 C 60.429688 51 60.335938 50.695312 60.339844 50.390625 C 60.34375 49.585938 60.945312 48.902344 61.742188 48.796875 C 61.96875 48.769531 62.140625 48.589844 62.175781 48.371094 L 66.175781 48.398438 C 66.183594 48.554688 66.25 48.703125 66.359375 48.816406 C 66.480469 48.9375 66.640625 49.003906 66.8125 49.007812 L 77.183594 49.070312 C 77.1875 49.070312 77.1875 49.070312 77.1875 49.070312 C 77.359375 49.070312 77.519531 49.003906 77.640625 48.882812 C 77.761719 48.765625 77.828125 48.605469 77.828125 48.433594 L 77.847656 45.378906 C 77.847656 45.207031 77.78125 45.046875 77.664062 44.921875 Z M 61.175781 47.894531 C 60.722656 48.035156 60.3125 48.296875 59.992188 48.65625 C 59.570312 49.132812 59.335938 49.746094 59.332031 50.382812 C 59.328125 50.617188 59.359375 50.847656 59.421875 51.070312 C 59.234375 51.144531 59.097656 51.324219 59.097656 51.539062 C 59.09375 51.816406 59.320312 52.042969 59.597656 52.046875 L 59.671875 52.046875 L 59.664062 53.15625 L 57.105469 53.140625 L 57.113281 52.03125 L 57.894531 52.035156 C 58.171875 52.035156 58.398438 51.8125 58.398438 51.535156 C 58.402344 51.257812 58.175781 51.03125 57.898438 51.027344 L 57.378906 51.023438 C 57.433594 50.8125 57.460938 50.59375 57.464844 50.371094 C 57.464844 49.96875 57.375 49.574219 57.203125 49.214844 L 57.222656 44.5 C 57.226562 43.921875 57.234375 42.710938 59.980469 41.050781 C 59.964844 41.070312 59.949219 41.085938 59.9375 41.105469 C 59.332031 41.890625 59.054688 42.683594 59.136719 43.398438 C 59.195312 43.910156 59.425781 44.367188 59.824219 44.757812 C 60.160156 45.085938 60.617188 45.367188 61.1875 45.597656 Z M 66.179688 47.390625 L 62.183594 47.367188 L 62.191406 46.253906 L 66.1875 46.277344 Z M 76.824219 48.058594 L 67.183594 48 L 67.199219 45.679688 L 76.835938 45.738281 Z M 76.824219 48.058594 " fill-opacity="1" fill-rule="nonzero"/></g><path fill="#4fa051" d="M 54.472656 52.605469 C 54.546875 52.644531 54.625 52.660156 54.699219 52.660156 C 54.886719 52.660156 55.0625 52.558594 55.152344 52.386719 C 55.277344 52.136719 55.175781 51.832031 54.929688 51.707031 L 53.355469 50.910156 C 53.105469 50.785156 52.804688 50.882812 52.675781 51.132812 C 52.550781 51.378906 52.652344 51.683594 52.898438 51.808594 Z M 54.472656 52.605469 " fill-opacity="1" fill-rule="nonzero"/><path fill="#4fa051" d="M 51.332031 53.792969 C 51.332031 54.074219 51.558594 54.296875 51.835938 54.296875 L 53.578125 54.296875 C 53.855469 54.296875 54.082031 54.074219 54.082031 53.792969 C 54.082031 53.515625 53.855469 53.289062 53.578125 53.289062 L 51.835938 53.289062 C 51.558594 53.289062 51.332031 53.515625 51.332031 53.792969 Z M 51.332031 53.792969 " fill-opacity="1" fill-rule="nonzero"/><path fill="#4fa051" d="M 53.882812 56.675781 C 53.972656 56.675781 54.066406 56.652344 54.148438 56.601562 L 55.789062 55.574219 C 56.023438 55.425781 56.097656 55.113281 55.949219 54.878906 C 55.800781 54.640625 55.488281 54.570312 55.253906 54.71875 L 53.613281 55.746094 C 53.378906 55.894531 53.308594 56.203125 53.453125 56.441406 C 53.550781 56.59375 53.714844 56.675781 53.882812 56.675781 Z M 53.882812 56.675781 " fill-opacity="1" fill-rule="nonzero"/><g clip-path="url(#6016f1d124)"><path fill="#4fa051" d="M 139.796875 61.453125 C 139.667969 61.453125 139.539062 61.414062 139.429688 61.332031 C 138.136719 60.398438 136.914062 59.421875 135.796875 58.429688 C 135.535156 58.195312 135.511719 57.796875 135.742188 57.535156 C 135.976562 57.277344 136.375 57.253906 136.636719 57.484375 C 137.613281 58.351562 138.671875 59.210938 139.792969 60.035156 C 145.34375 55.859375 149.175781 51.261719 151.511719 45.992188 C 153.679688 41.089844 154.558594 35.558594 154.1875 29.101562 L 139.828125 23.765625 L 125.503906 29.089844 C 125.203125 35.726562 126.113281 41.351562 128.289062 46.28125 C 128.433594 46.609375 128.589844 46.949219 128.753906 47.285156 C 128.90625 47.601562 128.777344 47.976562 128.460938 48.128906 C 128.148438 48.28125 127.769531 48.152344 127.617188 47.835938 C 127.445312 47.484375 127.285156 47.132812 127.132812 46.789062 C 124.832031 41.574219 123.894531 35.628906 124.261719 28.609375 C 124.277344 28.355469 124.4375 28.136719 124.675781 28.050781 L 139.605469 22.5 C 139.75 22.445312 139.90625 22.445312 140.046875 22.5 L 155.011719 28.0625 C 155.246094 28.148438 155.40625 28.363281 155.421875 28.613281 C 155.867188 35.453125 154.964844 41.304688 152.664062 46.503906 C 150.191406 52.09375 146.105469 56.945312 140.171875 61.328125 C 140.0625 61.414062 139.929688 61.453125 139.796875 61.453125 " fill-opacity="1" fill-rule="nonzero"/></g><path fill="#4fa051" d="M 131.34375 47.777344 C 131.117188 47.777344 130.902344 47.65625 130.789062 47.445312 C 130.488281 46.886719 130.203125 46.3125 129.949219 45.726562 C 128.171875 41.699219 127.445312 37.109375 127.730469 31.695312 C 127.746094 31.441406 127.90625 31.222656 128.140625 31.136719 L 131.3125 29.957031 C 131.640625 29.835938 132.003906 30 132.125 30.328125 C 132.246094 30.65625 132.078125 31.019531 131.753906 31.140625 L 128.972656 32.175781 C 128.753906 37.207031 129.453125 41.476562 131.101562 45.21875 C 131.347656 45.769531 131.613281 46.316406 131.898438 46.847656 C 132.066406 47.152344 131.949219 47.535156 131.644531 47.703125 C 131.546875 47.753906 131.445312 47.777344 131.34375 47.777344 " fill-opacity="1" fill-rule="nonzero"/><path fill="#4fa051" d="M 139.8125 57.082031 C 139.683594 57.082031 139.550781 57.042969 139.441406 56.960938 C 138.601562 56.355469 137.796875 55.722656 137.054688 55.082031 C 136.789062 54.855469 136.761719 54.457031 136.988281 54.191406 C 137.214844 53.925781 137.613281 53.898438 137.878906 54.125 C 138.484375 54.644531 139.132812 55.164062 139.808594 55.664062 C 144.003906 52.488281 146.90625 48.996094 148.675781 44.996094 C 150.324219 41.277344 150.996094 37.082031 150.726562 32.183594 L 139.835938 28.136719 L 135.292969 29.824219 C 134.964844 29.945312 134.601562 29.78125 134.480469 29.453125 C 134.359375 29.125 134.523438 28.761719 134.851562 28.640625 L 139.613281 26.871094 C 139.757812 26.816406 139.914062 26.816406 140.054688 26.871094 L 151.554688 31.144531 C 151.785156 31.230469 151.945312 31.445312 151.964844 31.695312 C 152.308594 36.976562 151.609375 41.492188 149.832031 45.507812 C 147.917969 49.828125 144.765625 53.574219 140.1875 56.957031 C 140.074219 57.039062 139.945312 57.082031 139.8125 57.082031 " fill-opacity="1" fill-rule="nonzero"/><path fill="#4fa051" d="M 129.792969 57.765625 C 129.585938 57.765625 129.394531 57.664062 129.277344 57.5 L 127.082031 54.386719 C 126.882812 54.101562 126.949219 53.707031 127.234375 53.507812 C 127.519531 53.308594 127.914062 53.375 128.117188 53.660156 L 129.800781 56.046875 L 133.296875 51.183594 C 133.5 50.898438 133.894531 50.835938 134.179688 51.039062 C 134.460938 51.242188 134.527344 51.636719 134.324219 51.921875 L 130.308594 57.503906 C 130.1875 57.667969 129.996094 57.765625 129.792969 57.765625 " fill-opacity="1" fill-rule="nonzero"/><path fill="#4fa051" d="M 141.382812 35.082031 C 140.289062 36.625 137.757812 40.472656 137.46875 43.390625 C 137.328125 44.800781 137.777344 46.226562 138.667969 47.210938 C 139.171875 47.765625 140.050781 48.429688 141.382812 48.429688 C 142.714844 48.429688 143.59375 47.765625 144.101562 47.210938 C 144.988281 46.226562 145.4375 44.800781 145.296875 43.390625 C 145.007812 40.46875 142.476562 36.625 141.382812 35.082031 Z M 141.382812 49.695312 C 139.984375 49.695312 138.6875 49.113281 137.730469 48.058594 C 136.605469 46.816406 136.039062 45.023438 136.210938 43.265625 C 136.382812 41.539062 137.226562 39.386719 138.714844 36.871094 C 139.808594 35.019531 140.839844 33.679688 140.882812 33.625 C 141.003906 33.46875 141.1875 33.378906 141.382812 33.378906 C 141.578125 33.378906 141.761719 33.46875 141.882812 33.625 C 141.925781 33.679688 142.957031 35.019531 144.050781 36.871094 C 145.539062 39.386719 146.382812 41.539062 146.554688 43.265625 C 146.730469 45.023438 146.160156 46.816406 145.035156 48.058594 C 144.082031 49.113281 142.78125 49.695312 141.382812 49.695312 " fill-opacity="1" fill-rule="nonzero"/><path fill="#4fa051" d="M 139.726562 46.765625 C 139.527344 46.765625 139.332031 46.671875 139.210938 46.496094 C 138.660156 45.707031 138.390625 44.6875 138.46875 43.703125 C 138.53125 42.917969 138.804688 41.988281 139.273438 40.945312 C 139.417969 40.625 139.792969 40.484375 140.109375 40.628906 C 140.429688 40.773438 140.570312 41.144531 140.425781 41.464844 C 140.015625 42.375 139.78125 43.164062 139.726562 43.804688 C 139.671875 44.503906 139.859375 45.222656 140.246094 45.773438 C 140.445312 46.0625 140.375 46.453125 140.089844 46.652344 C 139.976562 46.730469 139.851562 46.765625 139.726562 46.765625 " fill-opacity="1" fill-rule="nonzero"/><path fill="#4fa051" d="M 134.167969 27.539062 Z M 133.667969 28.230469 C 132.839844 29.421875 131.261719 31.921875 131.070312 33.832031 C 130.976562 34.78125 131.277344 35.742188 131.875 36.402344 C 132.207031 36.773438 132.789062 37.210938 133.667969 37.210938 C 134.546875 37.210938 135.128906 36.773438 135.464844 36.402344 C 136.0625 35.742188 136.359375 34.78125 136.265625 33.832031 C 136.078125 31.921875 134.496094 29.421875 133.667969 28.230469 Z M 133.667969 38.472656 C 132.621094 38.472656 131.652344 38.039062 130.9375 37.25 C 130.105469 36.332031 129.683594 35.003906 129.8125 33.707031 C 130.105469 30.757812 133.042969 26.925781 133.167969 26.765625 C 133.289062 26.609375 133.472656 26.519531 133.667969 26.519531 C 133.863281 26.519531 134.050781 26.609375 134.167969 26.765625 C 134.292969 26.925781 137.230469 30.757812 137.523438 33.707031 C 137.652344 35.003906 137.234375 36.332031 136.398438 37.25 C 135.683594 38.039062 134.714844 38.472656 133.667969 38.472656 " fill-opacity="1" fill-rule="nonzero"/><path fill="#4fa051" d="M 132.492188 36.394531 C 132.292969 36.394531 132.097656 36.300781 131.972656 36.125 C 131.558594 35.527344 131.355469 34.761719 131.417969 34.019531 C 131.460938 33.441406 131.660156 32.761719 132.003906 32 C 132.148438 31.683594 132.523438 31.539062 132.839844 31.683594 C 133.15625 31.828125 133.300781 32.203125 133.15625 32.519531 C 132.871094 33.148438 132.710938 33.6875 132.675781 34.121094 C 132.640625 34.578125 132.761719 35.042969 133.011719 35.402344 C 133.210938 35.6875 133.140625 36.082031 132.855469 36.28125 C 132.742188 36.359375 132.617188 36.394531 132.492188 36.394531 " fill-opacity="1" fill-rule="nonzero"/><g clip-path="url(#6a108df9f5)"><path fill="#4fa051" d="M 130.640625 47.742188 C 127.207031 47.742188 124.414062 50.535156 124.414062 53.964844 C 124.414062 57.398438 127.207031 60.191406 130.640625 60.191406 C 134.074219 60.191406 136.863281 57.398438 136.863281 53.964844 C 136.863281 50.535156 134.074219 47.742188 130.640625 47.742188 Z M 130.640625 61.453125 C 128.640625 61.453125 126.761719 60.675781 125.34375 59.261719 C 123.929688 57.847656 123.152344 55.964844 123.152344 53.964844 C 123.152344 51.964844 123.929688 50.085938 125.34375 48.671875 C 126.761719 47.257812 128.640625 46.476562 130.640625 46.476562 C 132.640625 46.476562 134.519531 47.257812 135.933594 48.671875 C 137.347656 50.085938 138.128906 51.964844 138.128906 53.964844 C 138.128906 55.964844 137.347656 57.847656 135.933594 59.261719 C 134.519531 60.675781 132.640625 61.453125 130.640625 61.453125 " fill-opacity="1" fill-rule="nonzero"/></g><g clip-path="url(#6926c8fcbc)"><path fill="#4fa051" d="M 240.003906 47.113281 L 233.308594 45.0625 C 233.214844 45.035156 233.117188 45.035156 233.023438 45.0625 L 229.863281 46.03125 C 229.679688 42.726562 228.417969 39.421875 226.195312 36.441406 C 226.058594 36.257812 225.808594 36.195312 225.601562 36.292969 C 225.390625 36.390625 225.28125 36.621094 225.335938 36.847656 C 225.796875 38.742188 225.117188 40.527344 223.253906 42.273438 C 224.925781 35.519531 222.167969 29.074219 214.871094 22.621094 C 214.703125 22.472656 214.449219 22.460938 214.265625 22.59375 C 214.082031 22.726562 214.015625 22.96875 214.105469 23.175781 C 215.300781 25.980469 215.613281 28.027344 215.089844 29.613281 C 214.617188 31.042969 213.488281 32.058594 212.179688 33.230469 C 210.03125 35.152344 207.386719 37.527344 206.46875 42.847656 C 205.3125 41.871094 204.496094 40.652344 203.984375 39.148438 C 203.917969 38.953125 203.738281 38.824219 203.53125 38.820312 C 203.328125 38.816406 203.144531 38.941406 203.070312 39.132812 C 201.035156 44.492188 200.859375 49.058594 202.546875 52.703125 C 204.234375 56.34375 207.828125 59.152344 213.222656 61.058594 C 213.238281 61.0625 213.253906 61.066406 213.265625 61.070312 C 214.273438 61.328125 215.292969 61.453125 216.308594 61.453125 C 217.929688 61.453125 219.546875 61.128906 221.089844 60.488281 C 223.171875 59.617188 225.027344 58.214844 226.507812 56.402344 C 226.652344 56.730469 226.855469 57.035156 227.121094 57.324219 C 228.605469 58.949219 231.007812 60.355469 232.933594 61.394531 C 233.007812 61.433594 233.085938 61.453125 233.164062 61.453125 C 233.246094 61.453125 233.324219 61.433594 233.394531 61.394531 C 235.320312 60.355469 237.722656 58.953125 239.207031 57.324219 C 239.785156 56.695312 240.078125 55.980469 240.101562 55.144531 L 240.347656 47.59375 C 240.355469 47.375 240.214844 47.175781 240.003906 47.113281 Z M 214.496094 60.335938 C 210.855469 57.226562 210.03125 53.449219 211.996094 48.828125 C 212.40625 50.304688 213.167969 51.226562 214.300781 51.628906 C 214.46875 51.691406 214.652344 51.652344 214.785156 51.535156 C 214.917969 51.417969 214.976562 51.238281 214.9375 51.066406 C 214.039062 47.109375 215.035156 43.695312 217.980469 40.671875 C 217.730469 43.0625 219.25 45.015625 220.730469 46.921875 C 223.195312 50.089844 225.742188 53.367188 221.449219 59.25 C 219.285156 60.316406 216.875 60.714844 214.496094 60.335938 Z M 223.355469 58.085938 C 224.585938 55.894531 224.988281 53.859375 224.589844 51.910156 C 224.140625 49.726562 222.796875 48 221.496094 46.324219 C 219.703125 44.019531 218.15625 42.03125 219.335938 39.355469 C 219.425781 39.148438 219.363281 38.90625 219.183594 38.773438 C 219 38.636719 218.75 38.644531 218.578125 38.792969 C 216.421875 40.621094 214.957031 42.640625 214.222656 44.796875 C 213.652344 46.472656 213.507812 48.285156 213.789062 50.191406 C 213.195312 49.605469 212.835938 48.632812 212.683594 47.210938 C 212.664062 47 212.503906 46.828125 212.292969 46.789062 C 212.082031 46.746094 211.871094 46.851562 211.773438 47.039062 C 210.339844 49.785156 209.765625 52.339844 210.070312 54.628906 C 210.3125 56.488281 211.136719 58.203125 212.519531 59.757812 C 207.949219 57.964844 204.894531 55.457031 203.429688 52.296875 C 201.972656 49.160156 202.019531 45.25 203.558594 40.652344 C 204.246094 42.054688 205.25 43.21875 206.546875 44.125 C 206.6875 44.222656 206.867188 44.238281 207.019531 44.171875 C 207.175781 44.101562 207.285156 43.957031 207.304688 43.789062 C 208.035156 38.246094 210.578125 35.964844 212.824219 33.953125 C 214.179688 32.738281 215.457031 31.59375 216.011719 29.914062 C 216.476562 28.503906 216.386719 26.828125 215.722656 24.734375 C 222.082031 30.921875 224.09375 37.078125 221.878906 43.507812 C 221.808594 43.707031 221.878906 43.933594 222.050781 44.058594 C 222.222656 44.183594 222.457031 44.183594 222.628906 44.054688 C 224.957031 42.3125 226.226562 40.449219 226.417969 38.496094 C 227.953125 40.988281 228.800781 43.660156 228.90625 46.324219 L 226.328125 47.113281 C 226.117188 47.175781 225.976562 47.375 225.984375 47.59375 L 226.226562 55.144531 C 226.226562 55.15625 226.226562 55.164062 226.230469 55.175781 C 225.398438 56.316406 224.425781 57.292969 223.355469 58.085938 Z M 239.136719 55.113281 C 239.117188 55.71875 238.914062 56.210938 238.492188 56.671875 C 237.164062 58.128906 234.980469 59.425781 233.164062 60.417969 C 231.347656 59.425781 229.167969 58.128906 227.839844 56.671875 C 227.417969 56.210938 227.214844 55.71875 227.195312 55.113281 L 226.964844 47.933594 L 233.164062 46.035156 L 239.367188 47.933594 Z M 232.285156 54.375 L 235.566406 51.09375 C 235.753906 50.90625 236.0625 50.90625 236.25 51.09375 C 236.441406 51.285156 236.441406 51.589844 236.25 51.78125 L 232.628906 55.402344 C 232.53125 55.496094 232.410156 55.542969 232.285156 55.542969 C 232.160156 55.542969 232.035156 55.496094 231.941406 55.402344 L 230.082031 53.539062 C 229.890625 53.351562 229.890625 53.042969 230.082031 52.855469 C 230.269531 52.664062 230.578125 52.664062 230.765625 52.855469 Z M 232.285156 54.375 " fill-opacity="1" fill-rule="nonzero"/></g><g clip-path="url(#429db70a41)"><path fill="#4fa051" d="M 294.78125 31.613281 L 295.679688 28.363281 L 297.917969 27.027344 L 295.667969 25.714844 L 294.734375 22.472656 L 293.835938 25.722656 L 291.597656 27.058594 L 293.847656 28.375 L 294.78125 31.613281 " fill-opacity="1" fill-rule="nonzero"/></g><g clip-path="url(#323daf4f7b)"><path fill="#4fa051" d="M 286.355469 36.351562 L 284.785156 30.789062 L 283.21875 36.351562 L 280.152344 37.894531 L 283.480469 39.574219 L 284.785156 44.199219 L 286.09375 39.574219 L 289.421875 37.894531 L 286.355469 36.351562 " fill-opacity="1" fill-rule="nonzero"/></g><path fill="#4fa051" d="M 290.316406 54.21875 L 291.234375 57.464844 L 292.148438 54.21875 L 294.390625 52.894531 L 292.148438 51.570312 L 291.234375 48.324219 L 290.316406 51.570312 L 288.074219 52.894531 L 290.316406 54.21875 " fill-opacity="1" fill-rule="nonzero"/><g clip-path="url(#f261ab90d1)"><path fill="#4fa051" d="M 298.046875 50.976562 C 298.246094 50.664062 298.558594 50.449219 298.921875 50.371094 C 299.019531 50.351562 299.117188 50.339844 299.210938 50.339844 C 299.476562 50.339844 299.738281 50.417969 299.964844 50.566406 L 302.332031 52.101562 C 302.597656 52.273438 302.949219 52.257812 303.199219 52.0625 C 303.449219 51.863281 303.550781 51.527344 303.445312 51.226562 L 300.28125 42.144531 C 300.046875 41.46875 300.402344 40.734375 301.074219 40.5 C 301.679688 40.289062 302.34375 40.558594 302.640625 41.117188 L 305.390625 49.019531 C 305.5 49.328125 305.789062 49.523438 306.097656 49.523438 C 306.179688 49.523438 306.261719 49.507812 306.34375 49.480469 C 306.734375 49.34375 306.941406 48.917969 306.804688 48.527344 L 304.105469 40.78125 C 304.097656 40.742188 304.089844 40.703125 304.078125 40.667969 L 302.886719 37.253906 C 302.773438 36.929688 302.792969 36.578125 302.945312 36.269531 C 303.09375 35.957031 303.355469 35.726562 303.683594 35.609375 C 304.347656 35.378906 305.085938 35.730469 305.324219 36.394531 C 305.335938 36.433594 305.355469 36.472656 305.375 36.511719 L 309.265625 47.671875 C 309.371094 47.980469 309.660156 48.171875 309.972656 48.171875 C 310.050781 48.171875 310.136719 48.160156 310.214844 48.132812 C 310.605469 47.996094 310.8125 47.570312 310.675781 47.179688 L 306.71875 35.816406 C 306.609375 35.199219 306.960938 34.582031 307.5625 34.375 C 308.234375 34.136719 308.972656 34.496094 309.207031 35.167969 L 310.429688 38.679688 C 310.460938 38.761719 310.5 38.832031 310.550781 38.894531 L 313.136719 46.320312 C 313.246094 46.632812 313.535156 46.824219 313.84375 46.824219 C 313.925781 46.824219 314.007812 46.8125 314.089844 46.78125 C 314.480469 46.644531 314.683594 46.21875 314.550781 45.832031 L 311.816406 37.988281 C 311.777344 37.421875 312.125 36.875 312.679688 36.683594 C 313.351562 36.449219 314.089844 36.804688 314.324219 37.476562 L 317.929688 47.832031 C 317.933594 47.898438 317.949219 47.964844 317.972656 48.027344 L 318.875 50.621094 C 320.085938 54.09375 318.242188 57.90625 314.769531 59.113281 L 313.445312 59.574219 C 311.3125 60.320312 308.96875 59.9375 307.175781 58.558594 C 307.160156 58.546875 307.144531 58.535156 307.128906 58.523438 L 298.453125 52.894531 C 298.144531 52.695312 297.929688 52.382812 297.851562 52.019531 C 297.773438 51.65625 297.84375 51.285156 298.046875 50.976562 Z M 296.386719 52.332031 C 296.550781 53.085938 296.992188 53.730469 297.640625 54.152344 L 306.289062 59.761719 C 307.738281 60.871094 309.480469 61.445312 311.246094 61.445312 C 312.148438 61.445312 313.058594 61.292969 313.9375 60.988281 L 315.261719 60.527344 C 319.511719 59.046875 321.769531 54.378906 320.285156 50.128906 L 319.449219 47.722656 C 319.445312 47.65625 319.429688 47.589844 319.410156 47.527344 L 315.738281 36.984375 C 315.230469 35.535156 313.640625 34.765625 312.1875 35.269531 C 311.75 35.421875 311.375 35.671875 311.078125 35.992188 L 310.621094 34.675781 C 310.113281 33.222656 308.523438 32.457031 307.070312 32.960938 C 306.339844 33.214844 305.777344 33.75 305.46875 34.402344 C 304.796875 34.027344 303.972656 33.925781 303.191406 34.199219 C 302.488281 34.445312 301.921875 34.949219 301.597656 35.617188 C 301.273438 36.289062 301.230469 37.042969 301.476562 37.746094 L 301.898438 38.960938 C 301.46875 38.898438 301.015625 38.933594 300.582031 39.085938 C 299.128906 39.589844 298.359375 41.183594 298.867188 42.636719 L 301.3125 49.65625 L 300.78125 49.3125 C 300.132812 48.890625 299.363281 48.75 298.609375 48.910156 C 297.855469 49.070312 297.210938 49.515625 296.789062 50.160156 C 296.371094 50.808594 296.226562 51.578125 296.386719 52.332031 " fill-opacity="1" fill-rule="nonzero"/></g><path fill="#4fa051" d="M 293.691406 34.585938 C 292.886719 36.261719 292.089844 39.9375 293.382812 42.675781 C 294.160156 44.324219 295.539062 45.40625 297.488281 45.886719 C 297.886719 45.984375 298.292969 45.742188 298.390625 45.339844 C 298.492188 44.9375 298.246094 44.535156 297.84375 44.433594 C 296.359375 44.066406 295.3125 43.261719 294.734375 42.039062 C 293.625 39.683594 294.460938 36.4375 295.039062 35.234375 C 295.535156 34.203125 296.730469 33.710938 297.992188 33.191406 C 298.796875 32.859375 299.628906 32.519531 300.320312 32.011719 C 301.386719 31.226562 302.085938 30.382812 302.703125 29.636719 C 303.703125 28.429688 304.496094 27.472656 306.554688 27.03125 C 309.300781 26.445312 310.519531 27.128906 312.945312 28.488281 L 312.996094 28.515625 C 314.429688 29.320312 315.945312 29.8125 317.410156 30.285156 C 320.453125 31.277344 323.082031 32.128906 324.5 35.414062 C 325.15625 36.933594 324.9375 37.890625 324.636719 39.210938 C 324.535156 39.660156 324.429688 40.121094 324.347656 40.652344 C 324.152344 41.886719 324.15625 43.140625 324.15625 44.351562 C 324.15625 45.5625 324.15625 46.707031 323.980469 47.828125 C 323.695312 49.628906 322.875 50.964844 321.476562 51.917969 C 321.132812 52.148438 321.042969 52.613281 321.277344 52.957031 C 321.421875 53.167969 321.65625 53.285156 321.894531 53.285156 C 322.042969 53.285156 322.1875 53.242188 322.316406 53.152344 C 324.078125 51.957031 325.105469 50.292969 325.457031 48.0625 C 325.652344 46.824219 325.652344 45.566406 325.652344 44.351562 C 325.652344 43.144531 325.648438 42.003906 325.824219 40.882812 C 325.902344 40.40625 326 39.964844 326.097656 39.542969 C 326.417969 38.125 326.722656 36.789062 325.875 34.824219 C 324.1875 30.914062 320.976562 29.875 317.871094 28.863281 C 316.476562 28.410156 315.03125 27.941406 313.726562 27.210938 L 313.675781 27.183594 C 311.183594 25.785156 309.539062 24.863281 306.242188 25.570312 C 303.675781 26.117188 302.59375 27.421875 301.550781 28.683594 C 300.960938 29.394531 300.351562 30.128906 299.433594 30.804688 C 298.890625 31.203125 298.179688 31.496094 297.425781 31.808594 C 296.023438 32.382812 294.433594 33.035156 293.691406 34.585938 " fill-opacity="1" fill-rule="nonzero"/><g fill="#4fa051" fill-opacity="1"><g transform="translate(35.88861, 78.435597)"><g><path d="M 2.171875 0 L 1.265625 0 L 1.265625 -3.5 L 0.125 -3.5 L 0.125 -4.25 L 3.328125 -4.25 L 3.328125 -3.5 L 2.171875 -3.5 Z M 2.171875 0 "/></g></g><g transform="translate(39.336897, 78.435597)"><g><path d="M 3.140625 0 L 2.828125 -1.015625 L 1.28125 -1.015625 L 0.96875 0 L 0 0 L 1.5 -4.265625 L 2.609375 -4.265625 L 4.109375 0 Z M 2.609375 -1.765625 C 2.328125 -2.679688 2.164062 -3.195312 2.125 -3.3125 C 2.09375 -3.4375 2.070312 -3.535156 2.0625 -3.609375 C 1.988281 -3.359375 1.800781 -2.742188 1.5 -1.765625 Z M 2.609375 -1.765625 "/></g></g><g transform="translate(43.445184, 78.435597)"><g><path d="M 4.015625 0 L 3.125 0 L 3.125 -1.828125 L 1.4375 -1.828125 L 1.4375 0 L 0.53125 0 L 0.53125 -4.25 L 1.4375 -4.25 L 1.4375 -2.578125 L 3.125 -2.578125 L 3.125 -4.25 L 4.015625 -4.25 Z M 4.015625 0 "/></g></g><g transform="translate(48.001226, 78.435597)"><g><path d="M 3.140625 0 L 2.828125 -1.015625 L 1.28125 -1.015625 L 0.96875 0 L 0 0 L 1.5 -4.265625 L 2.609375 -4.265625 L 4.109375 0 Z M 2.609375 -1.765625 C 2.328125 -2.679688 2.164062 -3.195312 2.125 -3.3125 C 2.09375 -3.4375 2.070312 -3.535156 2.0625 -3.609375 C 1.988281 -3.359375 1.800781 -2.742188 1.5 -1.765625 Z M 2.609375 -1.765625 "/></g></g><g transform="translate(52.109513, 78.435597)"><g><path d="M 4.3125 0 L 3.15625 0 L 1.3125 -3.21875 L 1.28125 -3.21875 C 1.320312 -2.644531 1.34375 -2.238281 1.34375 -2 L 1.34375 0 L 0.53125 0 L 0.53125 -4.25 L 1.671875 -4.25 L 3.515625 -1.0625 L 3.53125 -1.0625 C 3.507812 -1.613281 3.5 -2.003906 3.5 -2.234375 L 3.5 -4.25 L 4.3125 -4.25 Z M 4.3125 0 "/></g></g><g transform="translate(56.950489, 78.435597)"><g/></g><g transform="translate(58.497275, 78.435597)"><g><path d="M 0.53125 0 L 0.53125 -4.25 L 1.4375 -4.25 L 1.4375 -0.75 L 3.15625 -0.75 L 3.15625 0 Z M 0.53125 0 "/></g></g><g transform="translate(61.861245, 78.435597)"><g><path d="M 3.140625 0 L 2.828125 -1.015625 L 1.28125 -1.015625 L 0.96875 0 L 0 0 L 1.5 -4.265625 L 2.609375 -4.265625 L 4.109375 0 Z M 2.609375 -1.765625 C 2.328125 -2.679688 2.164062 -3.195312 2.125 -3.3125 C 2.09375 -3.4375 2.070312 -3.535156 2.0625 -3.609375 C 1.988281 -3.359375 1.800781 -2.742188 1.5 -1.765625 Z M 2.609375 -1.765625 "/></g></g><g transform="translate(65.969532, 78.435597)"><g><path d="M 2.328125 0 L 1.3125 -3.328125 L 1.28125 -3.328125 C 1.320312 -2.648438 1.34375 -2.203125 1.34375 -1.984375 L 1.34375 0 L 0.53125 0 L 0.53125 -4.25 L 1.765625 -4.25 L 2.765625 -1 L 2.78125 -1 L 3.84375 -4.25 L 5.078125 -4.25 L 5.078125 0 L 4.234375 0 L 4.234375 -2.015625 C 4.234375 -2.109375 4.234375 -2.21875 4.234375 -2.34375 C 4.242188 -2.46875 4.257812 -2.796875 4.28125 -3.328125 L 4.25 -3.328125 L 3.15625 0 Z M 2.328125 0 "/></g></g><g transform="translate(71.583901, 78.435597)"><g><path d="M 3.140625 0 L 2.828125 -1.015625 L 1.28125 -1.015625 L 0.96875 0 L 0 0 L 1.5 -4.265625 L 2.609375 -4.265625 L 4.109375 0 Z M 2.609375 -1.765625 C 2.328125 -2.679688 2.164062 -3.195312 2.125 -3.3125 C 2.09375 -3.4375 2.070312 -3.535156 2.0625 -3.609375 C 1.988281 -3.359375 1.800781 -2.742188 1.5 -1.765625 Z M 2.609375 -1.765625 "/></g></g></g><g fill="#4fa051" fill-opacity="1"><g transform="translate(122.936637, 78.435597)"><g><path d="M 2.171875 0 L 1.265625 0 L 1.265625 -3.5 L 0.125 -3.5 L 0.125 -4.25 L 3.328125 -4.25 L 3.328125 -3.5 L 2.171875 -3.5 Z M 2.171875 0 "/></g></g><g transform="translate(126.384924, 78.435597)"><g><path d="M 3.140625 0 L 2.828125 -1.015625 L 1.28125 -1.015625 L 0.96875 0 L 0 0 L 1.5 -4.265625 L 2.609375 -4.265625 L 4.109375 0 Z M 2.609375 -1.765625 C 2.328125 -2.679688 2.164062 -3.195312 2.125 -3.3125 C 2.09375 -3.4375 2.070312 -3.535156 2.0625 -3.609375 C 1.988281 -3.359375 1.800781 -2.742188 1.5 -1.765625 Z M 2.609375 -1.765625 "/></g></g><g transform="translate(130.493211, 78.435597)"><g><path d="M 4.015625 0 L 3.125 0 L 3.125 -1.828125 L 1.4375 -1.828125 L 1.4375 0 L 0.53125 0 L 0.53125 -4.25 L 1.4375 -4.25 L 1.4375 -2.578125 L 3.125 -2.578125 L 3.125 -4.25 L 4.015625 -4.25 Z M 4.015625 0 "/></g></g><g transform="translate(135.049253, 78.435597)"><g><path d="M 3.140625 0 L 2.828125 -1.015625 L 1.28125 -1.015625 L 0.96875 0 L 0 0 L 1.5 -4.265625 L 2.609375 -4.265625 L 4.109375 0 Z M 2.609375 -1.765625 C 2.328125 -2.679688 2.164062 -3.195312 2.125 -3.3125 C 2.09375 -3.4375 2.070312 -3.535156 2.0625 -3.609375 C 1.988281 -3.359375 1.800781 -2.742188 1.5 -1.765625 Z M 2.609375 -1.765625 "/></g></g><g transform="translate(139.15754, 78.435597)"><g><path d="M 4.3125 0 L 3.15625 0 L 1.3125 -3.21875 L 1.28125 -3.21875 C 1.320312 -2.644531 1.34375 -2.238281 1.34375 -2 L 1.34375 0 L 0.53125 0 L 0.53125 -4.25 L 1.671875 -4.25 L 3.515625 -1.0625 L 3.53125 -1.0625 C 3.507812 -1.613281 3.5 -2.003906 3.5 -2.234375 L 3.5 -4.25 L 4.3125 -4.25 Z M 4.3125 0 "/></g></g><g transform="translate(143.998516, 78.435597)"><g/></g><g transform="translate(145.545302, 78.435597)"><g><path d="M 3.140625 0 L 2.828125 -1.015625 L 1.28125 -1.015625 L 0.96875 0 L 0 0 L 1.5 -4.265625 L 2.609375 -4.265625 L 4.109375 0 Z M 2.609375 -1.765625 C 2.328125 -2.679688 2.164062 -3.195312 2.125 -3.3125 C 2.09375 -3.4375 2.070312 -3.535156 2.0625 -3.609375 C 1.988281 -3.359375 1.800781 -2.742188 1.5 -1.765625 Z M 2.609375 -1.765625 "/></g></g><g transform="translate(149.65359, 78.435597)"><g><path d="M 0.53125 0 L 0.53125 -4.25 L 1.4375 -4.25 L 1.4375 0 Z M 0.53125 0 "/></g></g><g transform="translate(151.62487, 78.435597)"><g><path d="M 1.4375 -2.359375 L 1.734375 -2.359375 C 2.015625 -2.359375 2.222656 -2.40625 2.359375 -2.5 C 2.492188 -2.59375 2.5625 -2.742188 2.5625 -2.953125 C 2.5625 -3.148438 2.488281 -3.289062 2.34375 -3.375 C 2.207031 -3.46875 1.992188 -3.515625 1.703125 -3.515625 L 1.4375 -3.515625 Z M 1.4375 -1.625 L 1.4375 0 L 0.53125 0 L 0.53125 -4.25 L 1.765625 -4.25 C 2.347656 -4.25 2.773438 -4.144531 3.046875 -3.9375 C 3.328125 -3.726562 3.46875 -3.410156 3.46875 -2.984375 C 3.46875 -2.734375 3.398438 -2.507812 3.265625 -2.3125 C 3.128906 -2.113281 2.9375 -1.960938 2.6875 -1.859375 C 3.320312 -0.898438 3.738281 -0.28125 3.9375 0 L 2.9375 0 L 1.921875 -1.625 Z M 1.4375 -1.625 "/></g></g></g><g fill="#4fa051" fill-opacity="1"><g transform="translate(204.394718, 78.435597)"><g><path d="M 2.171875 0 L 1.265625 0 L 1.265625 -3.5 L 0.125 -3.5 L 0.125 -4.25 L 3.328125 -4.25 L 3.328125 -3.5 L 2.171875 -3.5 Z M 2.171875 0 "/></g></g><g transform="translate(207.843004, 78.435597)"><g><path d="M 3.140625 0 L 2.828125 -1.015625 L 1.28125 -1.015625 L 0.96875 0 L 0 0 L 1.5 -4.265625 L 2.609375 -4.265625 L 4.109375 0 Z M 2.609375 -1.765625 C 2.328125 -2.679688 2.164062 -3.195312 2.125 -3.3125 C 2.09375 -3.4375 2.070312 -3.535156 2.0625 -3.609375 C 1.988281 -3.359375 1.800781 -2.742188 1.5 -1.765625 Z M 2.609375 -1.765625 "/></g></g><g transform="translate(211.951292, 78.435597)"><g><path d="M 4.015625 0 L 3.125 0 L 3.125 -1.828125 L 1.4375 -1.828125 L 1.4375 0 L 0.53125 0 L 0.53125 -4.25 L 1.4375 -4.25 L 1.4375 -2.578125 L 3.125 -2.578125 L 3.125 -4.25 L 4.015625 -4.25 Z M 4.015625 0 "/></g></g><g transform="translate(216.507333, 78.435597)"><g><path d="M 3.140625 0 L 2.828125 -1.015625 L 1.28125 -1.015625 L 0.96875 0 L 0 0 L 1.5 -4.265625 L 2.609375 -4.265625 L 4.109375 0 Z M 2.609375 -1.765625 C 2.328125 -2.679688 2.164062 -3.195312 2.125 -3.3125 C 2.09375 -3.4375 2.070312 -3.535156 2.0625 -3.609375 C 1.988281 -3.359375 1.800781 -2.742188 1.5 -1.765625 Z M 2.609375 -1.765625 "/></g></g><g transform="translate(220.615621, 78.435597)"><g><path d="M 4.3125 0 L 3.15625 0 L 1.3125 -3.21875 L 1.28125 -3.21875 C 1.320312 -2.644531 1.34375 -2.238281 1.34375 -2 L 1.34375 0 L 0.53125 0 L 0.53125 -4.25 L 1.671875 -4.25 L 3.515625 -1.0625 L 3.53125 -1.0625 C 3.507812 -1.613281 3.5 -2.003906 3.5 -2.234375 L 3.5 -4.25 L 4.3125 -4.25 Z M 4.3125 0 "/></g></g><g transform="translate(225.456597, 78.435597)"><g/></g><g transform="translate(227.003383, 78.435597)"><g><path d="M 3.140625 0 L 2.828125 -1.015625 L 1.28125 -1.015625 L 0.96875 0 L 0 0 L 1.5 -4.265625 L 2.609375 -4.265625 L 4.109375 0 Z M 2.609375 -1.765625 C 2.328125 -2.679688 2.164062 -3.195312 2.125 -3.3125 C 2.09375 -3.4375 2.070312 -3.535156 2.0625 -3.609375 C 1.988281 -3.359375 1.800781 -2.742188 1.5 -1.765625 Z M 2.609375 -1.765625 "/></g></g><g transform="translate(231.11167, 78.435597)"><g><path d="M 1.4375 -2.25 L 1.734375 -2.25 C 2.003906 -2.25 2.207031 -2.300781 2.34375 -2.40625 C 2.488281 -2.519531 2.5625 -2.679688 2.5625 -2.890625 C 2.5625 -3.097656 2.503906 -3.253906 2.390625 -3.359375 C 2.273438 -3.460938 2.09375 -3.515625 1.84375 -3.515625 L 1.4375 -3.515625 Z M 3.46875 -2.921875 C 3.46875 -2.460938 3.320312 -2.113281 3.03125 -1.875 C 2.75 -1.632812 2.347656 -1.515625 1.828125 -1.515625 L 1.4375 -1.515625 L 1.4375 0 L 0.53125 0 L 0.53125 -4.25 L 1.890625 -4.25 C 2.410156 -4.25 2.800781 -4.132812 3.0625 -3.90625 C 3.332031 -3.6875 3.46875 -3.359375 3.46875 -2.921875 Z M 3.46875 -2.921875 "/></g></g><g transform="translate(234.850706, 78.435597)"><g><path d="M 0.53125 0 L 0.53125 -4.25 L 1.4375 -4.25 L 1.4375 0 Z M 0.53125 0 "/></g></g></g><g fill="#4fa051" fill-opacity="1"><g transform="translate(298.057517, 78.435597)"><g><path d="M 0.53125 -4.25 L 1.859375 -4.25 C 2.460938 -4.25 2.898438 -4.160156 3.171875 -3.984375 C 3.441406 -3.816406 3.578125 -3.546875 3.578125 -3.171875 C 3.578125 -2.921875 3.515625 -2.710938 3.390625 -2.546875 C 3.273438 -2.390625 3.117188 -2.289062 2.921875 -2.25 L 2.921875 -2.234375 C 3.191406 -2.171875 3.382812 -2.054688 3.5 -1.890625 C 3.625 -1.722656 3.6875 -1.503906 3.6875 -1.234375 C 3.6875 -0.847656 3.546875 -0.546875 3.265625 -0.328125 C 2.984375 -0.109375 2.601562 0 2.125 0 L 0.53125 0 Z M 1.4375 -2.5625 L 1.953125 -2.5625 C 2.203125 -2.5625 2.378906 -2.597656 2.484375 -2.671875 C 2.597656 -2.753906 2.65625 -2.882812 2.65625 -3.0625 C 2.65625 -3.21875 2.59375 -3.332031 2.46875 -3.40625 C 2.351562 -3.476562 2.164062 -3.515625 1.90625 -3.515625 L 1.4375 -3.515625 Z M 1.4375 -1.859375 L 1.4375 -0.75 L 2.015625 -0.75 C 2.265625 -0.75 2.445312 -0.796875 2.5625 -0.890625 C 2.6875 -0.984375 2.75 -1.128906 2.75 -1.328125 C 2.75 -1.679688 2.5 -1.859375 2 -1.859375 Z M 1.4375 -1.859375 "/></g></g><g transform="translate(302.058228, 78.435597)"><g><path d="M 2.984375 0 L 0.53125 0 L 0.53125 -4.25 L 2.984375 -4.25 L 2.984375 -3.515625 L 1.4375 -3.515625 L 1.4375 -2.578125 L 2.875 -2.578125 L 2.875 -1.84375 L 1.4375 -1.84375 L 1.4375 -0.75 L 2.984375 -0.75 Z M 2.984375 0 "/></g></g><g transform="translate(305.393122, 78.435597)"><g><path d="M 1.4375 -2.359375 L 1.734375 -2.359375 C 2.015625 -2.359375 2.222656 -2.40625 2.359375 -2.5 C 2.492188 -2.59375 2.5625 -2.742188 2.5625 -2.953125 C 2.5625 -3.148438 2.488281 -3.289062 2.34375 -3.375 C 2.207031 -3.46875 1.992188 -3.515625 1.703125 -3.515625 L 1.4375 -3.515625 Z M 1.4375 -1.625 L 1.4375 0 L 0.53125 0 L 0.53125 -4.25 L 1.765625 -4.25 C 2.347656 -4.25 2.773438 -4.144531 3.046875 -3.9375 C 3.328125 -3.726562 3.46875 -3.410156 3.46875 -2.984375 C 3.46875 -2.734375 3.398438 -2.507812 3.265625 -2.3125 C 3.128906 -2.113281 2.9375 -1.960938 2.6875 -1.859375 C 3.320312 -0.898438 3.738281 -0.28125 3.9375 0 L 2.9375 0 L 1.921875 -1.625 Z M 1.4375 -1.625 "/></g></g><g transform="translate(309.324053, 78.435597)"><g><path d="M 3.046875 -1.1875 C 3.046875 -0.800781 2.90625 -0.492188 2.625 -0.265625 C 2.351562 -0.046875 1.972656 0.0625 1.484375 0.0625 C 1.023438 0.0625 0.617188 -0.0234375 0.265625 -0.203125 L 0.265625 -1.03125 C 0.554688 -0.90625 0.800781 -0.816406 1 -0.765625 C 1.195312 -0.710938 1.378906 -0.6875 1.546875 -0.6875 C 1.742188 -0.6875 1.894531 -0.722656 2 -0.796875 C 2.101562 -0.867188 2.15625 -0.984375 2.15625 -1.140625 C 2.15625 -1.222656 2.128906 -1.296875 2.078125 -1.359375 C 2.035156 -1.421875 1.96875 -1.484375 1.875 -1.546875 C 1.789062 -1.609375 1.609375 -1.703125 1.328125 -1.828125 C 1.066406 -1.953125 0.875 -2.070312 0.75 -2.1875 C 0.625 -2.300781 0.519531 -2.429688 0.4375 -2.578125 C 0.363281 -2.722656 0.328125 -2.894531 0.328125 -3.09375 C 0.328125 -3.476562 0.453125 -3.773438 0.703125 -3.984375 C 0.960938 -4.203125 1.316406 -4.3125 1.765625 -4.3125 C 1.984375 -4.3125 2.191406 -4.285156 2.390625 -4.234375 C 2.585938 -4.179688 2.796875 -4.109375 3.015625 -4.015625 L 2.734375 -3.3125 C 2.503906 -3.40625 2.316406 -3.46875 2.171875 -3.5 C 2.023438 -3.539062 1.878906 -3.5625 1.734375 -3.5625 C 1.566406 -3.5625 1.4375 -3.519531 1.34375 -3.4375 C 1.25 -3.363281 1.203125 -3.257812 1.203125 -3.125 C 1.203125 -3.050781 1.21875 -2.984375 1.25 -2.921875 C 1.289062 -2.859375 1.351562 -2.800781 1.4375 -2.75 C 1.519531 -2.695312 1.707031 -2.597656 2 -2.453125 C 2.40625 -2.265625 2.679688 -2.070312 2.828125 -1.875 C 2.972656 -1.6875 3.046875 -1.457031 3.046875 -1.1875 Z M 3.046875 -1.1875 "/></g></g><g transform="translate(312.603705, 78.435597)"><g><path d="M 0.53125 0 L 0.53125 -4.25 L 1.4375 -4.25 L 1.4375 0 Z M 0.53125 0 "/></g></g><g transform="translate(314.574985, 78.435597)"><g><path d="M 4.015625 0 L 3.125 0 L 3.125 -1.828125 L 1.4375 -1.828125 L 1.4375 0 L 0.53125 0 L 0.53125 -4.25 L 1.4375 -4.25 L 1.4375 -2.578125 L 3.125 -2.578125 L 3.125 -4.25 L 4.015625 -4.25 Z M 4.015625 0 "/></g></g></g></svg>